<?xml version="1.0" standalone="no"?><!DOCTYPE svg PUBLIC "-//W3C//DTD SVG 1.1//EN" "http://www.w3.org/Graphics/SVG/1.1/DTD/svg11.dtd"><svg class="icon" width="200px" height="200.00px" viewBox="0 0 1024 1024" version="1.1" xmlns="http://www.w3.org/2000/svg"><path  d="M856 615.3l-34.5-5.6c-4.5-0.7-9.1-1.1-13.6-1.1-14.5 0-28.9 3.7-41.6 11L588 720.3c-0.6 0.4-1.4 0.5-2.1 0.5-0.7 0-1.5-0.2-2.1-0.6l-54-31.2h45.5c21.6 0 39.1-17.5 39.1-39.1V627.2c0-21.6-17.5-39.1-39.1-39.1H368.1c-3.4 0-6.7 0.3-9.8 0.6-0.8 0.1-1.4 0.2-2.2 0.3-7.4 1.1-13.1 2.6-13.1 2.6l-184.5 54.2c-2.2 0.7-3.5 3-2.9 5.3l39.5 134.5c0.5 1.8 2.2 3 4.1 3 0.4 0 0.8-0.1 1.2-0.2l133.9-39.3c0.4-0.1 0.8-0.2 1.2-0.2 0.7 0 1.5 0.2 2.1 0.6l224.1 129.4c6.1 3.7 11.8 4.9 16.9 4.9 11.1 0 18.8-6 18.8-6L864 642c9.6-8.4 4.9-24.5-8-26.7z"  /><path  d="M332.6 555.7c2.9-0.8 18.4-5 35.5-5h207.2c36.5 0 67 25.6 74.7 59.8 71.4-45.3 118.9-124.8 118.9-215.6 0-141-114.3-255.3-255.3-255.3S258.3 253.9 258.3 394.9c0 62.9 22.8 120.4 60.5 164.9l13.8-4.1z m72.3-168.6l101-101c4.3-4.3 11.2-4.3 15.5 0l101 101c4.3 4.3 4.3 11.2 0 15.5l-101 101c-4.3 4.3-11.2 4.3-15.5 0l-101-101c-4.3-4.2-4.3-11.2 0-15.5z"  /></svg>