<?xml version="1.0" standalone="no"?><!DOCTYPE svg PUBLIC "-//W3C//DTD SVG 1.1//EN" "http://www.w3.org/Graphics/SVG/1.1/DTD/svg11.dtd"><svg t="1618391317288" class="icon" viewBox="0 0 1048 1024" version="1.1" xmlns="http://www.w3.org/2000/svg" p-id="2264" data-spm-anchor-id="a313x.7781069.0.i9" xmlns:xlink="http://www.w3.org/1999/xlink" width="204.6875" height="200"><defs><style type="text/css"></style></defs><path d="M1045.942857 108.397714c-4.566857-19.670857-24.213714-31.917714-43.885714-27.355428l-190.683429 44.178285a36.571429 36.571429 0 0 0-18.066285 61.037715l41.618285 43.044571L612.571429 427.666286l-115.456-109.348572c-14.628571-13.846857-37.699429-13.257143-51.602286 1.316572L197.814857 579.364571c-30.305143-6.331429-61.313143 7.102857-77.420571 33.541715-16.107429 26.437714-13.826286 60.154286 5.697143 84.180571 19.523429 24.027429 52.059429 33.16 81.234285 22.803429 29.174857-10.356571 48.669714-37.96 48.674286-68.918857 0-7.936-1.572571-15.396571-3.913143-22.528l221.184-231.936 113.408 107.373714c13.8 13.060571 35.301714 13.378286 49.481143 0.731428l249.6-222.646857 47.433143 49.115429a36.571429 36.571429 0 0 0 61.622857-15.908572l50.797714-189.037714a36.388571 36.388571 0 0 0 0.329143-17.737143z" fill="#f4ea2a" p-id="2265" data-spm-anchor-id="a313x.7781069.0.i7" class=""></path><path d="M987.428571 441.673143c-20.197714 0-36.571429 16.373714-36.571428 36.571428V768c0 20.197714-16.373714 36.571429-36.571429 36.571429H109.714286c-20.197714 0-36.571429-16.373714-36.571429-36.571429V109.714286c0-20.197714 16.373714-36.571429 36.571429-36.571429h606.464c20.197714 0 36.571429-16.373714 36.571428-36.571428 0-20.197714-16.373714-36.571429-36.571428-36.571429H109.714286C49.12 0 0 49.12 0 109.714286v658.285714c0 60.594286 49.12 109.714286 109.714286 109.714286h804.571428c60.594286 0 109.714286-49.12 109.714286-109.714286V478.244571c0-20.197714-16.373714-36.571429-36.571429-36.571428zM969.142857 950.857143H54.857143c-20.197714 0-36.571429 16.373714-36.571429 36.571428 0 20.197714 16.373714 36.571429 36.571429 36.571429h914.285714c20.197714 0 36.571429-16.373714 36.571429-36.571429 0-20.197714-16.373714-36.571429-36.571429-36.571428z" fill="#ffffff" p-id="2266" data-spm-anchor-id="a313x.7781069.0.i6" class="selected"></path></svg>