<?xml version="1.0" standalone="no"?><!DOCTYPE svg PUBLIC "-//W3C//DTD SVG 1.1//EN" "http://www.w3.org/Graphics/SVG/1.1/DTD/svg11.dtd"><svg class="icon" width="200px" height="200.00px" viewBox="0 0 1024 1024" version="1.1" xmlns="http://www.w3.org/2000/svg"><path d="M919.8592 485.2736c-16.9472 0-30.72 13.7728-30.72 30.72 0 207.9744-169.1648 377.1392-377.1392 377.1392s-377.1392-169.1648-377.1392-377.1392S304.0256 138.8544 512 138.8544c108.032 0 209.7152 46.1312 280.7808 125.3888h-116.0704c-16.9472 0-30.72 13.7728-30.72 30.72s13.7728 30.72 30.72 30.72h188.2624c16.9472 0 30.72-13.7728 30.72-30.72V100.1472c0-16.9472-13.7728-30.72-30.72-30.72s-30.72 13.7728-30.72 30.72v118.272A438.17984 438.17984 0 0 0 512 77.3632c-241.8176 0-438.5792 196.7616-438.5792 438.5792s196.7616 438.5792 438.5792 438.5792 438.5792-196.7616 438.5792-438.5792c0-16.9472-13.7728-30.6688-30.72-30.6688z"  /><path d="M532.48 572.3136H289.0752c-16.9472 0-30.72-13.7728-30.72-30.72s13.7728-30.72 30.72-30.72H501.76v-160.768c0-16.9472 13.7728-30.72 30.72-30.72s30.72 13.7728 30.72 30.72v191.4368c0 16.9984-13.7728 30.7712-30.72 30.7712z"  /></svg>