<?xml version="1.0" standalone="no"?><!DOCTYPE svg PUBLIC "-//W3C//DTD SVG 1.1//EN" "http://www.w3.org/Graphics/SVG/1.1/DTD/svg11.dtd"><svg class="icon" width="200px" height="200.00px" viewBox="0 0 1024 1024" version="1.1" xmlns="http://www.w3.org/2000/svg"><path  d="M416 43.968c37.824 0 71.936 16 96 41.472a131.52 131.52 0 0 1 96-41.472h5.888a126.08 126.08 0 0 1 114.048 180.032h132.096a132.032 132.032 0 0 1 59.968 249.6v470.4a48 48 0 0 1-48 48H152a48 48 0 0 1-48-48V473.6a132.032 132.032 0 0 1 60.032-249.6h132.032a126.08 126.08 0 0 1 108.8-179.904l5.248-0.128h5.888z m-24 444.032H176v432h216v-432z m168 432v-623.808h-96v623.808h96z m288-432h-216v432h216v-432z m-683.968-192a60.032 60.032 0 0 0-3.968 119.872l3.968 0.128h227.968v-120H164.032z m695.936 0h-227.968V416h228.032a60.032 60.032 0 0 0 0-120zM416 115.968h-5.888a54.144 54.144 0 0 0-4.608 108.032h70.528v-48l-0.128-3.904a59.968 59.968 0 0 0-59.904-56.128z m197.888 0H608a59.968 59.968 0 0 0-60.032 60.032v48h70.528a54.144 54.144 0 0 0-4.608-108.032z" /></svg>