<?xml version="1.0" standalone="no"?><!DOCTYPE svg PUBLIC "-//W3C//DTD SVG 1.1//EN" "http://www.w3.org/Graphics/SVG/1.1/DTD/svg11.dtd"><svg class="icon" width="200px" height="200.00px" viewBox="0 0 1024 1024" version="1.1" xmlns="http://www.w3.org/2000/svg"><path  d="M617.033143 87.771429c17.261714 0 31.305143 13.165714 31.305143 29.476571a29.988571 29.988571 0 0 1-25.746286 28.964571l-5.558857 0.512H257.024c-25.965714 0-47.469714 17.773714-51.2 40.886858l-0.512 7.094857v671.158857c0 24.064 19.090286 44.032 44.105143 47.469714l7.606857 0.512h553.837714c25.965714 0 47.469714-17.773714 51.2-40.886857l0.512-7.094857V375.369143c0-16.310857 14.043429-29.476571 31.305143-29.476572 15.36 0 28.233143 10.386286 30.866286 24.137143l0.512 5.339429v490.496c0 55.808-45.714286 101.595429-104.009143 106.496l-10.386286 0.438857H257.024c-59.611429 0-108.690286-42.642286-113.956571-97.206857l-0.438858-9.728V194.706286c0-55.808 45.714286-101.595429 104.009143-106.496l10.386286-0.438857h360.009143zM727.771429 660.918857a31.378286 31.378286 0 0 1 5.632 62.171429l-5.632 0.512h-387.657143a31.378286 31.378286 0 0 1-5.632-62.171429l5.632-0.512h387.657143zM589.312 494.738286a31.378286 31.378286 0 0 1 5.632 62.171428l-5.632 0.512H340.114286a31.378286 31.378286 0 0 1-5.632-62.171428l5.632-0.512h249.197714zM853.869714 69.997714l6.363429 1.901715a31.378286 31.378286 0 0 1 15.579428 43.812571l-3.657142 5.412571-235.446858 276.918858a31.378286 31.378286 0 0 1-51.492571-35.108572l3.730286-5.485714L824.32 80.457143a31.378286 31.378286 0 0 1 22.893714-10.971429l6.582857 0.438857z"  /></svg>