<?xml version="1.0" standalone="no"?><!DOCTYPE svg PUBLIC "-//W3C//DTD SVG 1.1//EN" "http://www.w3.org/Graphics/SVG/1.1/DTD/svg11.dtd"><svg class="icon" width="200px" height="200.00px" viewBox="0 0 1024 1024" version="1.1" xmlns="http://www.w3.org/2000/svg"><path  d="M617.984 35.181714a30.061714 30.061714 0 0 1 22.381714 9.654857l252.123429 260.388572c6.217143 5.851429 9.728 13.970286 9.654857 22.454857l0.438857 5.12-0.438857 5.12c0.658286 3.657143 0.658286 7.314286 0 10.898286v611.181714a31.963429 31.963429 0 0 1-32.036571 32.036571H188.489143a31.963429 31.963429 0 0 1-31.963429-32.036571V67.218286c0-17.700571 14.336-32.036571 32.036572-32.036572z m-72.338286 64H220.525714v825.636572h617.618286V369.883429H577.682286a31.963429 31.963429 0 0 1-32.036572-31.963429V99.181714z m180.516572 584.338286c17.627429 0 31.963429 14.336 31.963428 32.036571a32.621714 32.621714 0 0 1-32.036571 31.963429H329.362286a32.621714 32.621714 0 0 1-32.036572-32.036571c0-17.627429 14.336-31.963429 32.036572-31.963429z m0-135.68a31.963429 31.963429 0 1 1 0 64H329.289143a31.963429 31.963429 0 1 1 0-64zM493.714286 412.16a31.963429 31.963429 0 1 1 0 64H329.362286a31.963429 31.963429 0 1 1 0-64z m115.858285-307.858286v201.581715h196.461715L609.645714 104.374857z" /></svg>