<?xml version="1.0" standalone="no"?><!DOCTYPE svg PUBLIC "-//W3C//DTD SVG 1.1//EN" "http://www.w3.org/Graphics/SVG/1.1/DTD/svg11.dtd"><svg t="1616999146496" class="icon" viewBox="0 0 1024 1024" version="1.1" xmlns="http://www.w3.org/2000/svg" p-id="8421" xmlns:xlink="http://www.w3.org/1999/xlink" width="200" height="200"><defs><style type="text/css"></style></defs><path d="M625.066667 492.8l-34.133333-8.533333c29.866667-23.466667 49.066667-57.6 49.066667-98.133333 0-53.333333-32-98.133333-76.8-117.333333l-10.666667 42.666667c27.733333 14.933333 46.933333 42.666667 46.933333 74.666667 0 27.733333-12.8 49.066667-32 66.133333l10.666667-42.666667c2.133333-4.266667 0-10.666667-2.133333-17.066667-6.4-10.666667-19.2-12.8-29.866667-8.533333-4.266667 2.133333-8.533333 8.533333-10.666667 12.8L512 484.266667l0 0c-2.133333 4.266667 0 10.666667 2.133333 17.066667 2.133333 4.266667 6.4 8.533333 12.8 8.533333l0 2.133333c0 0 2.133333 0 2.133333 0l87.466667 23.466667c4.266667 2.133333 10.666667 0 17.066667-2.133333 10.666667-6.4 12.8-19.2 8.533333-29.866667C635.733333 497.066667 631.466667 492.8 625.066667 492.8zM896 42.666667 128 42.666667C81.066667 42.666667 42.666667 81.066667 42.666667 128l0 640c0 46.933333 38.4 85.333333 85.333333 85.333333l298.666667 0 0 85.333333-64 0c-12.8 0-21.333333 8.533333-21.333333 21.333333s8.533333 21.333333 21.333333 21.333333l64 0 170.666667 0 64 0c12.8 0 21.333333-8.533333 21.333333-21.333333s-8.533333-21.333333-21.333333-21.333333l-64 0 0-85.333333 298.666667 0c46.933333 0 85.333333-38.4 85.333333-85.333333L981.333333 128C981.333333 81.066667 942.933333 42.666667 896 42.666667zM554.666667 938.666667l-85.333333 0 0-85.333333 85.333333 0L554.666667 938.666667zM938.666667 768c0 23.466667-19.2 42.666667-42.666667 42.666667L597.333333 810.666667l-170.666667 0L128 810.666667c-23.466667 0-42.666667-19.2-42.666667-42.666667l0-42.666667 853.333333 0L938.666667 768zM938.666667 682.666667 85.333333 682.666667 85.333333 128c0-23.466667 19.2-42.666667 42.666667-42.666667l768 0c23.466667 0 42.666667 19.2 42.666667 42.666667L938.666667 682.666667zM509.866667 268.8c-2.133333-4.266667-6.4-8.533333-10.666667-8.533333l0-2.133333c-2.133333 0-2.133333 0-4.266667 0l-85.333333-23.466667c-4.266667-2.133333-10.666667 0-17.066667 2.133333-10.666667 6.4-12.8 19.2-8.533333 29.866667 2.133333 4.266667 8.533333 8.533333 12.8 10.666667l32 8.533333C403.2 309.333333 384 343.466667 384 384c0 53.333333 32 98.133333 78.933333 117.333333l10.666667-42.666667c-27.733333-14.933333-46.933333-42.666667-46.933333-76.8 0-27.733333 12.8-51.2 34.133333-66.133333L448 360.533333c-2.133333 4.266667 0 10.666667 2.133333 17.066667 6.4 10.666667 19.2 12.8 29.866667 8.533333 4.266667-2.133333 8.533333-8.533333 10.666667-12.8l23.466667-87.466667C514.133333 279.466667 514.133333 273.066667 509.866667 268.8z" p-id="8422"></path></svg>