<?xml version="1.0" standalone="no"?><!DOCTYPE svg PUBLIC "-//W3C//DTD SVG 1.1//EN" "http://www.w3.org/Graphics/SVG/1.1/DTD/svg11.dtd"><svg class="icon" width="200px" height="200.00px" viewBox="0 0 1024 1024" version="1.1" xmlns="http://www.w3.org/2000/svg"><path  d="M213.482667 981.333333C119.146667 981.333333 42.666667 905.002667 42.666667 810.709333v-63.978666A106.794667 106.794667 0 0 1 149.248 640H298.666667V149.482667C298.666667 90.56 346.496 42.666667 405.248 42.666667h469.504A106.666667 106.666667 0 0 1 981.333333 149.482667V810.666667A170.666667 170.666667 0 0 1 810.517333 981.333333H213.482667zM896 810.666667V149.504A21.333333 21.333333 0 0 0 874.752 128H405.248C393.664 128 384 137.664 384 149.482667V640h234.858667C677.610667 640 725.333333 687.850667 725.333333 746.752v64.042667A85.333333 85.333333 0 0 0 896 810.666667z m-256 0.128v-64.042667A21.333333 21.333333 0 0 0 618.858667 725.333333H149.248C137.642667 725.333333 128 734.976 128 746.730667v63.978666A85.333333 85.333333 0 0 0 213.482667 896h449.322666A169.557333 169.557333 0 0 1 640 810.794667zM512 320a42.666667 42.666667 0 1 1 0-85.333333h256a42.666667 42.666667 0 1 1 0 85.333333H512z m0 149.333333a42.666667 42.666667 0 1 1 0-85.333333h128a42.666667 42.666667 0 1 1 0 85.333333h-128z" /></svg>