<?xml version="1.0" standalone="no"?><!DOCTYPE svg PUBLIC "-//W3C//DTD SVG 1.1//EN" "http://www.w3.org/Graphics/SVG/1.1/DTD/svg11.dtd"><svg class="icon" width="200px" height="200.00px" viewBox="0 0 1024 1024" version="1.1" xmlns="http://www.w3.org/2000/svg"><path  d="M718.056727 554.356364c14.894545 8.564364 29.323636 18.013091 43.054546 28.299636a418.443636 418.443636 0 0 1 168.354909 335.406545l-0.186182 8.704a441.716364 441.716364 0 0 1-3.956364 50.734546H97.28a438.085818 438.085818 0 0 1-3.956364-50.734546c0-2.746182-0.186182-6.283636-0.186181-9.076363a417.605818 417.605818 0 0 1 211.456-363.194182c14.941091 13.032727 31.092364 24.622545 48.22109 34.629818a368.407273 368.407273 0 0 0-48.407272 28.485818 365.521455 365.521455 0 0 0-158.068364 300.869819c0 2.792727 0.139636 0.791273 0.232727 9.122909h729.553455c0.046545-8.331636 0.186182-6.376727 0.186182-9.122909a366.312727 366.312727 0 0 0-206.475637-329.541819 316.741818 316.741818 0 0 0 48.267637-34.536727zM511.301818 46.545455a269.498182 269.498182 0 0 1 269.125818 269.172363 269.498182 269.498182 0 0 1-269.125818 269.125818 269.498182 269.498182 0 0 1-269.172363-269.125818A269.498182 269.498182 0 0 1 511.301818 46.545455z m0 53.201454a216.203636 216.203636 0 0 0-215.970909 215.970909 216.203636 216.203636 0 0 0 215.970909 215.924364c119.063273 0 215.970909-96.814545 215.970909-215.970909a216.203636 216.203636 0 0 0-215.970909-215.970909z" /></svg>