<?xml version="1.0" standalone="no"?><!DOCTYPE svg PUBLIC "-//W3C//DTD SVG 1.1//EN" "http://www.w3.org/Graphics/SVG/1.1/DTD/svg11.dtd"><svg class="icon" width="200px" height="200.00px" viewBox="0 0 1024 1024" version="1.1" xmlns="http://www.w3.org/2000/svg"><path  d="M801.3824 301.056l-2.6624-2.2528v15.36h2.6624zM798.5152 271.5648v27.2384l2.8672 2.2528v-29.4912zM206.2336 319.2832c0-17.8176 14.5408-32.3584 32.3584-32.3584h104.2432c17.8176 0 32.3584 14.5408 32.3584 32.3584 0 17.8176-14.5408 32.3584-32.3584 32.3584H238.592c-17.8176 0-32.3584-14.5408-32.3584-32.3584zM206.2336 473.4976c0-17.8176 14.5408-32.3584 32.3584-32.3584H419.84c17.8176 0 32.3584 14.5408 32.3584 32.3584 0 17.8176-14.5408 32.3584-32.3584 32.3584H238.592c-17.8176 0-32.3584-14.5408-32.3584-32.3584zM206.2336 627.5072c0-17.8176 14.5408-32.3584 32.3584-32.3584h258.4576c17.8176 0 32.3584 14.5408 32.3584 32.3584 0 17.8176-14.5408 32.3584-32.3584 32.3584H238.592c-17.8176 0.2048-32.3584-14.336-32.3584-32.3584zM854.2208 822.6816l0.8192-1.4336c17.6128-26.8288 28.4672-58.1632 30.9248-90.5216 0-90.3168-76.1856-166.5024-166.5024-166.5024S552.96 640.4096 552.96 730.7264s76.1856 166.5024 166.5024 166.5024c33.1776 0 65.3312-10.6496 92.7744-30.5152l1.4336-1.024 95.232 95.232c11.4688 11.4688 30.3104 11.4688 41.7792 0 11.4688-11.4688 11.4688-30.3104 0-41.7792l-96.4608-96.4608z m-134.5536 8.3968c-57.1392 0-100.352-43.2128-100.352-100.352s43.2128-100.352 100.352-100.352c47.5136 0 100.352 41.1648 100.352 100.352 0 57.344-43.2128 100.352-100.352 100.352zM606.208 58.1632L600.064 53.248h0.4096H138.6496C97.8944 53.248 65.536 85.8112 65.536 126.5664v770.8672C65.536 938.1888 97.8944 970.752 138.6496 970.752h388.9152c16.9984 0 30.9248-13.7216 30.9248-30.72s-13.7216-30.72-30.9248-30.72H138.6496c-6.7584 0-11.6736-5.12-11.6736-11.8784V126.5664c0-6.7584 4.9152-11.8784 11.6736-11.8784H524.288v162.6112c0 20.48 15.9744 36.0448 36.4544 36.0448H798.72v160.1536c0 16.9984 13.7216 30.9248 30.72 30.9248s30.72-13.7216 30.72-30.9248V269.9264L606.208 58.1632zM603.9552 249.856c-10.24 0-18.2272-8.6016-18.2272-18.8416V123.0848L736.6656 249.856h-132.7104z" /></svg>