<?xml version="1.0" standalone="no"?><!DOCTYPE svg PUBLIC "-//W3C//DTD SVG 1.1//EN" "http://www.w3.org/Graphics/SVG/1.1/DTD/svg11.dtd"><svg class="icon" width="200px" height="200.00px" viewBox="0 0 1024 1024" version="1.1" xmlns="http://www.w3.org/2000/svg"><path d="M355.26 139.96c0.98-1.91 2.08-3.76 3.28-5.54l-3.28 5.54zM402.74 111.36h-1.36c0.23-0.01 0.45-0.01 0.68-0.01s0.45 0 0.68 0.01zM666.34 137.94l-1.82-2.97c0.64 0.97 1.25 1.96 1.82 2.97z"  /><path d="M248.42 716.88c-16.18 0-29.27-13.09-29.27-29.27V570.54c0-16.18 13.09-29.27 29.27-29.27s29.27 13.09 29.27 29.27v117.07c0 16.18-13.09 29.27-29.27 29.27zM395.45 716.88c-16.18 0-29.27-13.09-29.27-29.27V336.39c0-16.18 13.09-29.27 29.27-29.27s29.27 13.09 29.27 29.27v351.22c-0.01 16.18-13.1 29.27-29.27 29.27zM542.42 716.88c-16.18 0-29.27-13.09-29.27-29.27V453.46c0-16.18 13.09-29.27 29.27-29.27s29.27 13.09 29.27 29.27v234.15c0 16.18-13.1 29.27-29.27 29.27z" fill="#FFFFFF" /><path d="M858.1 911.97H519.06V796.25c6.96-0.7 13.91-3.01 20.18-6.49 16.47-9.51 26.67-26.9 26.67-45.92 0-27.13-20.41-49.4-46.84-52.64v-33.63c15.54-3.25 28.06-16.93 29.91-34.32l23.19-245.59c3.48-48.7-19.71-75.6-53.11-78.85V112.83c32 1.86 63.31 18.78 81.63 50.32l346 596.45c38.96 67.72-9.98 152.37-88.59 152.37z"  /><path d="M452.73 377.66l23.19 245.59c1.86 19.94 17.86 35.02 36.41 35.02 2.32 0 4.64-0.23 6.72-0.7v33.63c-2.32-0.23-4.41-0.46-6.72-0.46-29.68-0.24-53.33 23.64-53.33 53.1 0 19.02 10.2 36.41 26.67 45.92 10.2 5.8 22.03 7.89 33.39 6.49v115.72H166.33c-78.38 0-127.55-84.64-88.35-152.36l345.77-596.45c19.71-33.86 54.26-50.79 88.35-50.79 2.32 0 4.64 0 6.96 0.46v185.99c-2.09-0.23-4.41-0.23-6.72-0.23-36.65-0.01-63.55 27.13-59.61 79.07z"  /></svg>