<?xml version="1.0" standalone="no"?><!DOCTYPE svg PUBLIC "-//W3C//DTD SVG 1.1//EN" "http://www.w3.org/Graphics/SVG/1.1/DTD/svg11.dtd"><svg class="icon" width="200px" height="200.00px" viewBox="0 0 1024 1024" version="1.1" xmlns="http://www.w3.org/2000/svg"><path  d="M897.33 263H795.7v-48.64c0-63.27-59.78-114.74-133.25-114.74h-300.7c-73.47 0-133.25 51.47-133.25 114.74V263H126.87c-36.45 0-66.1 29.65-66.1 66.1v529.44c0 36.44 29.65 66.09 66.1 66.09h770.45c36.45 0 66.1-29.65 66.1-66.09V329.1c0.01-36.45-29.65-66.1-66.09-66.1z m-598.06-48.64c0-23.82 28.6-43.96 62.47-43.96h300.71c33.87 0 62.47 20.14 62.47 43.96V263H299.27v-48.64z m593.38 119.41v65.64h-761.1v-65.64h761.1z m-761.1 520.08V470.2h761.1v383.65h-761.1z"  /><path  d="M606.18 615.5h-58.7v-58.7c0-19.54-15.84-35.39-35.39-35.39-19.54 0-35.39 15.84-35.39 35.39v58.7H418c-19.54 0-35.39 15.84-35.39 35.39 0 19.54 15.84 35.39 35.39 35.39h58.7v58.7c0 19.54 15.84 35.39 35.39 35.39 19.54 0 35.39-15.84 35.39-35.39v-58.7h58.7c19.54 0 35.39-15.84 35.39-35.39s-15.84-35.39-35.39-35.39z"  /></svg>